 http://i26.photobucket.com/albums/c119/manojb/good.gif 
http://i26.photobucket.com/albums/c119/manojb/vlcsnap-2013-02-07-00h15m06s156.png 
http://i26.photobucket.com/albums/c119/manojb/vlcsnap-2013-02-07-00h15m18s20.png 
http://i26.photobucket.com/albums/c119/manojb/vlcsnap-2013-02-07-00h15m43s4.png 
http://i26.photobucket.com/albums/c119/manojb/vlcsnap-2013-02-07-00h16m04s224.png

Info - 
Marathi Animated Story - Topivikya Aani Makad. Watch the classic story of Cap Seller and the Monkeys in Marathi.

Media Info - 
General
Complete name                  : Topivikya Aani Makad - Animation - Kids [TMB].avi
Format                         : AVI
Format/Info                    : Audio Video Interleave
File size                      : 31.9 MiB
Duration                       : 6mn 7s
Overall bit rate               : 729 Kbps

Video
ID                             : 0
Format                         : MPEG-4 Visual
Format profile                 : Advanced Simple@L1
Format settings, BVOP          : 2
Format settings, QPel          : No
Format settings, GMC           : No warppoints
Format settings, Matrix        : Default (H.263)
Codec ID                       : DIVX
Codec ID/Info                  : Project Mayo
Codec ID/Hint                  : DivX 4
Duration                       : 6mn 7s
Bit rate                       : 584 Kbps
Width                          : 480 pixels
Height                         : 360 pixels
Display aspect ratio           : 4:3
Frame rate                     : 25.000 fps
Color space                    : YUV
Chroma subsampling             : 4:2:0
Bit depth                      : 8 bits
Scan type                      : Progressive
Compression mode               : Lossy
Bits/(Pixel*Frame)             : 0.135
Stream size                    : 25.6 MiB (80%)
Writing library                : Lavc54.59.100

Audio
ID                             : 1
Format                         : AC-3
Format/Info                    : Audio Coding 3
Mode extension                 : CM (complete main)
Format settings, Endianness    : Big
Codec ID                       : 2000
Duration                       : 6mn 7s
Source duration                : 6mn 7s
Bit rate mode                  : Constant
Bit rate                       : 128 Kbps
Channel(s)                     : 2 channels
Channel positions              : Front: L R
Sampling rate                  : 44.1 KHz
Bit depth                      : 16 bits
Compression mode               : Lossy
Stream size                    : 5.61 MiB (18%)
Alignment                      : Aligned on interleaves
Interleave, duration           : 35 ms (0.87 video frame)

Ripper : Manojvb

Extreme 24x7 Seeding


Enjoy TMB Release!